<?xml version="1.0" encoding="utf-8"?>
<?xml-stylesheet type="text/xsl" href="rss1.xsl"?>
<rss version="2.0" xmlns:atom="http://www.w3.org/2005/Atom" xmlns:content="http://purl.org/rss/1.0/modules/content/" xmlns:dc="http://purl.org/dc/elements/1.1/" xmlns:media="http://search.yahoo.com/mrss/">
<channel>
 <title>Getty</title>
 <link>http://www.gettyimg.com/</link>
 <atom:link href="http://www.gettyimg.com/" rel="self" type="application/rss+xml" />

 
                <item>
                <title><![CDATA[【HD Live Performances】FEED - Dick Clark's New Year's Rockin' Eve with Ryan Seacrest S01E52 2024 720p HDTV Backhaul MPA2.0/FLAC 5.1 H.264/HEVC-TrollHD]]></title>
                <link><![CDATA[https://sharemania.us/threads/dick-clarks-new-years-rockin-eve-with-ryan-seacrest-s01e52-2024-720p-hdtv-backhaul-mpa2-0-flac-5-1-h-264-hevc-trollhd.235384/]]></link>
                <description><![CDATA[<article>
<blockquote class="messageText SelectQuoteContainer ugc baseHtml">
<div style="text-align: center"><b><span style="color: #ff0000">Dick Clark's New Year's Rockin' Eve with Ryan Seacrest S01E52 2024 720p HDTV Backhaul MPA2.0/FLAC 5.1 H.264/HEVC-TrollHD</span></b><br>
<br>
<img src="https://cdn1.edgedatg.com/aws/v2/abc/DickClarksNewYearsRockinEvewithRyanSeacrest/blog/4354171/4b8e093800a76872618f8a1f7f61295b/528x299-Q90_4b8e093800a76872618f8a1f7f61295b.jpg" class="bbCodeImage LbImage" alt="[​IMG]" data-url="https://cdn1.edgedatg.com/aws/v2/abc/DickClarksNewYearsRockinEvewithRyanSeacrest/blog/4354171/4b8e093800a76872618f8a1f7f61295b/528x299-Q90_4b8e093800a76872618f8a1f7f61295b.jpg" style=""> <br>
<img src="https://images2.imgbox.com/47/27/tgWfcFOX_o.jpg" class="bbCodeImage LbImage" alt="[​IMG]" data-url="https://images2.imgbox.com/47/27/tgWfcFOX_o.jpg" style=""> <img src="https://images2.imgbox.com/fe/7d/ax3jSEdM_o.jpg" class="bbCodeImage LbImage" alt="[​IMG]" data-url="https://images2.imgbox.com/fe/7d/ax3jSEdM_o.jpg" style=""><br>
<div class="ToggleTriggerAnchor bbCodeSpoilerContainer">
<button type="button" class="button bbCodeSpoilerButton ToggleTrigger Tooltip JsOnly" data-target="> .SpoilerTarget"><span>Spoiler: <span class="SpoilerTitle">MediaInfo - Dick Clark's New Year's Rockin' Eve with Ryan Seacrest S01E52 2024 - Part 1 720p HDTV Backhaul MPA2.0 H.264-TrollHD</span></span></button>
<div class="SpoilerTarget bbCodeSpoilerText">General<br>
Unique ID : 236094306691491503236698219648526270941 (0xB19E1C07E82652839205130F6D2B41DD)<br>
Complete name : D:\Dick Clark's New Year's Rockin' Eve with Ryan Seacrest S01E52 2024 - Part 1 720p HDTV Backhaul MPA2.0 H.264-TrollHD.mkv<br>
Format : Matroska<br>
Format version : Version 4<br>
File size : 44.2 GiB<br>
Duration : 3 h 39 min<br>
Overall bit rate mode : Constant<br>
Overall bit rate : 28.8 Mb/s<br>
Encoded date : UTC 2024-01-01 23:56:33<br>
Writing application : mkvmerge v77.0 ('Elemental') 64-bit<br>
Writing library : libebml v1.4.4 + libmatroska v1.7.1<br>
<br>
Video<br>
ID : 1<br>
Format : AVC<br>
Format/Info : Advanced Video Codec<br>
Format profile : High@L4.1<br>
Format settings : 3 Ref Frames<br>
Format settings, CABAC : No<br>
Format settings, Reference : 3 frames<br>
Format settings, GOP : M=3, N=30<br>
Codec ID : V_MPEG4/ISO/AVC<br>
Duration : 3 h 39 min<br>
Bit rate mode : Constant<br>
Bit rate : 28.6 Mb/s<br>
Nominal bit rate : 31.4 Mb/s<br>
Width : 1 280 pixels<br>
Height : 720 pixels<br>
Display aspect ratio : 16:9<br>
Frame rate mode : Constant<br>
Frame rate : 59.940 (60000/1001) FPS<br>
Color space : YUV<br>
Chroma subsampling : 4:2:0<br>
Bit depth : 8 bits<br>
Scan type : Progressive<br>
Bits/(Pixel*Frame) : 0.518<br>
Stream size : 43.9 GiB (99%)<br>
Default : Yes<br>
Forced : No<br>
Color range : Limited<br>
Color primaries : BT.709<br>
Transfer characteristics : BT.709<br>
Matrix coefficients : BT.709<br>
<br>
Audio<br>
ID : 2<br>
Format : MPEG Audio<br>
Format version : Version 1<br>
Format profile : Layer 2<br>
Codec ID : A_MPEG/L2<br>
Codec ID/Hint : MP2<br>
Duration : 3 h 39 min<br>
Bit rate mode : Constant<br>
Bit rate : 192 kb/s<br>
Channel(s) : 2 channels<br>
Sampling rate : 48.0 kHz<br>
Frame rate : 41.667 FPS (1152 SPF)<br>
Compression mode : Lossy<br>
Stream size : 340 MiB (1%)<br>
Language : English<br>
Default : Yes<br>
Forced : No</div>
</div>
<div class="ToggleTriggerAnchor bbCodeSpoilerContainer">
<button type="button" class="button bbCodeSpoilerButton ToggleTrigger Tooltip JsOnly" data-target="> .SpoilerTarget"><span>Spoiler: <span class="SpoilerTitle">MediaInfo - Dick Clark's New Year's Rockin' Eve with Ryan Seacrest S01E52 2024 - Part 2 720p HDTV FLAC 5.1 HEVC-TrollHD</span></span></button>
<div class="SpoilerTarget bbCodeSpoilerText">General<br>
Unique ID : 328601668646009175177438547742225074259 (0xF736611C9048E5CC75AA49981CE40853)<br>
Complete name : D:\Dick Clark's New Year's Rockin' Eve with Ryan Seacrest S01E52 2024 - Part 2 720p HDTV FLAC 5.1 HEVC-TrollHD.mkv<br>
Format : Matroska<br>
Format version : Version 4<br>
File size : 3.14 GiB<br>
Duration : 38 min 35 s<br>
Overall bit rate mode : Variable<br>
Overall bit rate : 11.7 Mb/s<br>
Encoded date : UTC 2024-01-01 23:55:20<br>
Writing application : mkvmerge v77.0 ('Elemental') 64-bit<br>
Writing library : libebml v1.4.4 + libmatroska v1.7.1<br>
<br>
Video<br>
ID : 1<br>
Format : HEVC<br>
Format/Info : High Efficiency Video Coding<br>
Format profile : Format Range@L4.1@High<br>
Codec ID : V_MPEGH/ISO/HEVC<br>
Duration : 38 min 35 s<br>
Bit rate : 9 605 kb/s<br>
Width : 1 280 pixels<br>
Height : 720 pixels<br>
Display aspect ratio : 16:9<br>
Frame rate mode : Constant<br>
Frame rate : 59.940 (59940/1000) FPS<br>
Original frame rate : 59.940 (60000/1001) FPS<br>
Standard : Component<br>
Color space : YUV<br>
Chroma subsampling : 4:2:2 (Type 0)<br>
Bit depth : 8 bits<br>
Bits/(Pixel*Frame) : 0.174<br>
Stream size : 2.59 GiB (82%)<br>
Default : Yes<br>
Forced : No<br>
Color range : Limited<br>
Color primaries : BT.709<br>
Transfer characteristics : BT.709<br>
Matrix coefficients : BT.709<br>
<br>
Audio<br>
ID : 2<br>
Format : FLAC<br>
Format/Info : Free Lossless Audio Codec<br>
Codec ID : A_FLAC<br>
Duration : 38 min 35 s<br>
Bit rate mode : Variable<br>
Bit rate : 2 056 kb/s<br>
Channel(s) : 6 channels<br>
Channel layout : L R C LFE Ls Rs<br>
Sampling rate : 48.0 kHz<br>
Frame rate : 11.719 FPS (4096 SPF)<br>
Bit depth : 16 bits<br>
Compression mode : Lossless<br>
Stream size : 567 MiB (18%)<br>
Writing library : libFLAC 1.3.2 (UTC 2019-08-04)<br>
Language : English<br>
Default : Yes<br>
Forced : No</div>
</div><br>
<div class="bbCodeBlock bbCodeVfcHH HiddenContent">
<div class="attribution type">Hidden Content:</div>
<blockquote>You must either reply or click 'Like' to see the hidden information contained here.</blockquote>
</div></div>
<div class="messageTextEndMarker">&nbsp;</div>
</blockquote>
</article>]]></description>
                <author><![CDATA[melodie]]></author>
                </item>

                </channel></rss>